<svg xmlns="http://www.w3.org/2000/svg" viewBox="0 0 48 48" width="48" height="48">
  <path fill="#25D366" d="M24 0C10.745 0 0 10.745 0 24c0 4.233 1.099 8.214 3.023 11.67L0.516 46.484l11.15-2.926C14.891 45.459 19.308 46.5 24 46.5c13.255 0 24-10.745 24-24S37.255 0 24 0z"/>
  <path fill="#fff" d="M35.176 31.663c-.564 1.591-3.331 2.906-4.581 3.018-1.25.113-1.092.893-6.938-1.445-5.845-2.338-9.53-8.293-9.819-8.669-.289-.377-2.354-3.131-2.354-5.975s1.489-4.24 2.017-4.816c.527-.577 1.151-.721 1.536-.721.384 0 .768.004 1.104.02.354.015.828-.134 1.295 0.987.481 1.154 1.635 3.994 1.777 4.28.142.287.237.621.048.998-.189.376-.284.61-.565.938-.28.328-.588.733-.841 0.983-.28.28-.572.583-.246 1.144.326.561 1.45 2.39 3.113 3.872 2.138 1.907 3.939 2.501 4.5 2.782.561.28.888.235 1.214-.141.326-.377 1.399-1.634 1.772-2.195.373-.561.747-.469 1.26-.281.514.188 3.265 1.54 3.826 1.82.561.281.937.422 1.073.657.137.235.137 1.355-.427 2.947z"/>
</svg>

